<?xml version="1.0" encoding="UTF-8" standalone="no"?>
<!DOCTYPE svg PUBLIC "-//W3C//DTD SVG 1.1//EN" "http://www.w3.org/Graphics/SVG/1.1/DTD/svg11.dtd">
<svg width="100%" height="100%" viewBox="0 0 154 28" version="1.1" xmlns="http://www.w3.org/2000/svg" xmlns:xlink="http://www.w3.org/1999/xlink" xml:space="preserve" xmlns:serif="http://www.serif.com/" style="fill-rule:evenodd;clip-rule:evenodd;stroke-linejoin:round;stroke-miterlimit:1.41421;"><path d="M87.633,14.058c-3.394,-3.168 -4.307,-14.886 -1.46,-18.519c2.847,-3.632 15.404,-4.652 18.798,-1.484c3.394,3.169 4.301,14.886 1.454,18.518c-2.847,3.633 -15.398,4.653 -18.792,1.485Z" style="fill:#fff;fill-opacity:0.0392157;"/><path d="M12.67,40.865c-4.604,-4.298 -5.842,-20.193 -1.98,-25.12c3.862,-4.926 20.893,-6.31 25.497,-2.012c4.604,4.297 5.834,20.191 1.973,25.117c-3.862,4.927 -20.886,6.312 -25.49,2.015Z" style="fill:#fff;fill-opacity:0.0392157;"/><path d="M50.591,4.608c-4.604,-4.298 -5.842,-20.193 -1.98,-25.119c3.862,-4.927 20.893,-6.311 25.497,-2.013c4.604,4.298 5.834,20.191 1.972,25.118c-3.861,4.926 -20.885,6.311 -25.489,2.014Z" style="fill:#fff;fill-opacity:0.0392157;"/><path d="M72.932,43.123c-5.418,-5.058 -6.875,-23.765 -2.33,-29.563c4.544,-5.798 24.589,-7.427 30.008,-2.369c5.418,5.058 6.866,23.763 2.321,29.562c-4.545,5.798 -24.58,7.428 -29.999,2.37Z" style="fill:#fff;fill-opacity:0.0392157;"/><path d="M129.675,55.848c-5.674,-5.297 -7.2,-24.886 -2.44,-30.958c4.759,-6.072 25.75,-7.778 31.424,-2.481c5.674,5.297 7.19,24.885 2.431,30.957c-4.76,6.072 -25.74,7.779 -31.415,2.482Z" style="fill:#fff;fill-opacity:0.0392157;"/><path d="M144.795,29.288c-6.717,-6.271 -8.523,-29.46 -2.889,-36.648c5.634,-7.188 30.482,-9.207 37.2,-2.937c6.717,6.271 8.511,29.459 2.877,36.646c-5.634,7.188 -30.471,9.209 -37.188,2.939Z" style="fill:#fff;fill-opacity:0.0392157;"/><path d="M-9.291,20.235c-5.537,-5.168 -7.025,-24.282 -2.382,-30.206c4.644,-5.925 25.125,-7.589 30.661,-2.421c5.537,5.168 7.016,24.281 2.372,30.205c-4.644,5.925 -25.115,7.59 -30.651,2.422Z" style="fill:#fff;fill-opacity:0.0392157;"/><path d="M63.424,53.599c-4.604,-4.297 -5.842,-20.192 -1.98,-25.119c3.862,-4.926 20.893,-6.31 25.497,-2.013c4.604,4.298 5.834,20.192 1.972,25.118c-3.861,4.927 -20.885,6.312 -25.489,2.014Z" style="fill:#fff;fill-opacity:0.0392157;"/></svg>